<svg xmlns="http://www.w3.org/2000/svg" version="1.1" class="w100 h-auto" width="660" height="400" viewBox="0 0 585 395"><g></g><g class="chart-area" font-family="sans-serif" transform="translate(100, 20)"><g transform="translate(0,300)" fill="none" font-size="10" font-family="sans-serif" text-anchor="middle"><path class="domain" stroke="currentColor" d="M0,6V0H410V6"></path><g class="tick" opacity="1" transform="translate(35.59552743323276,0)"><line stroke="currentColor" y2="6"></line><text fill="currentColor" y="9" dy="0.71em" style="font-size: 12px;">2010</text></g><g class="tick" opacity="1" transform="translate(85.76314392669572,0)"><line stroke="currentColor" y2="6"></line><text fill="currentColor" y="9" dy="0.71em" style="font-size: 12px;">2012</text></g><g class="tick" opacity="1" transform="translate(135.99948318247849,0)"><line stroke="currentColor" y2="6"></line><text fill="currentColor" y="9" dy="0.71em" style="font-size: 12px;">2014</text></g><g class="tick" opacity="1" transform="translate(186.16709967594144,0)"><line stroke="currentColor" y2="6"></line><text fill="currentColor" y="9" dy="0.71em" style="font-size: 12px;">2016</text></g><g class="tick" opacity="1" transform="translate(236.4034389317242,0)"><line stroke="currentColor" y2="6"></line><text fill="currentColor" y="9" dy="0.71em" style="font-size: 12px;">2018</text></g><g class="tick" opacity="1" transform="translate(286.5739188736172,0)"><line stroke="currentColor" y2="6"></line><text fill="currentColor" y="9" dy="0.71em" style="font-size: 12px;">2020</text></g><g class="tick" opacity="1" transform="translate(336.8102581293999,0)"><line stroke="currentColor" y2="6"></line><text fill="currentColor" y="9" dy="0.71em" style="font-size: 12px;">2022</text></g><g class="tick" opacity="1" transform="translate(386.9778746228629,0)"><line stroke="currentColor" y2="6"></line><text fill="currentColor" y="9" dy="0.71em" style="font-size: 12px;">2024</text></g></g><g class="grid-lines" transform="translate(0,300)" fill="none" font-size="10" font-family="sans-serif" text-anchor="middle"><path class="domain" stroke="currentColor" d="M0,-300V0H410V-300"></path><g class="tick" opacity="1" transform="translate(35.59552743323276,0)"><line stroke="currentColor" y2="-300" style="stroke: #ccc; fill: none;"></line></g><g class="tick" opacity="1" transform="translate(85.76314392669572,0)"><line stroke="currentColor" y2="-300" style="stroke: #ccc; fill: none;"></line></g><g class="tick" opacity="1" transform="translate(135.99948318247849,0)"><line stroke="currentColor" y2="-300" style="stroke: #ccc; fill: none;"></line></g><g class="tick" opacity="1" transform="translate(186.16709967594144,0)"><line stroke="currentColor" y2="-300" style="stroke: #ccc; fill: none;"></line></g><g class="tick" opacity="1" transform="translate(236.4034389317242,0)"><line stroke="currentColor" y2="-300" style="stroke: #ccc; fill: none;"></line></g><g class="tick" opacity="1" transform="translate(286.5739188736172,0)"><line stroke="currentColor" y2="-300" style="stroke: #ccc; fill: none;"></line></g><g class="tick" opacity="1" transform="translate(336.8102581293999,0)"><line stroke="currentColor" y2="-300" style="stroke: #ccc; fill: none;"></line></g><g class="tick" opacity="1" transform="translate(386.9778746228629,0)"><line stroke="currentColor" y2="-300" style="stroke: #ccc; fill: none;"></line></g></g><text x="205" y="360" class="axis-label x-axis-label" style="text-anchor: middle; font-weight: bold;">Year</text><g fill="none" font-size="10" font-family="sans-serif" text-anchor="end"><path class="domain" stroke="currentColor" d="M-6,300H0V0H-6"></path><g class="tick" opacity="1" transform="translate(0,300)"><line stroke="currentColor" x2="-6"></line><text fill="currentColor" x="-9" dy="0.32em" style="font-size: 12px;">0.00%</text></g><g class="tick" opacity="1" transform="translate(0,266.66666666666663)"><line stroke="currentColor" x2="-6"></line><text fill="currentColor" x="-9" dy="0.32em" style="font-size: 12px;">2.00%</text></g><g class="tick" opacity="1" transform="translate(0,233.33333333333334)"><line stroke="currentColor" x2="-6"></line><text fill="currentColor" x="-9" dy="0.32em" style="font-size: 12px;">4.00%</text></g><g class="tick" opacity="1" transform="translate(0,200.00000000000003)"><line stroke="currentColor" x2="-6"></line><text fill="currentColor" x="-9" dy="0.32em" style="font-size: 12px;">6.00%</text></g><g class="tick" opacity="1" transform="translate(0,166.66666666666669)"><line stroke="currentColor" x2="-6"></line><text fill="currentColor" x="-9" dy="0.32em" style="font-size: 12px;">8.00%</text></g><g class="tick" opacity="1" transform="translate(0,133.33333333333331)"><line stroke="currentColor" x2="-6"></line><text fill="currentColor" x="-9" dy="0.32em" style="font-size: 12px;">10.00%</text></g><g class="tick" opacity="1" transform="translate(0,100.00000000000001)"><line stroke="currentColor" x2="-6"></line><text fill="currentColor" x="-9" dy="0.32em" style="font-size: 12px;">12.00%</text></g><g class="tick" opacity="1" transform="translate(0,66.66666666666663)"><line stroke="currentColor" x2="-6"></line><text fill="currentColor" x="-9" dy="0.32em" style="font-size: 12px;">14.00%</text></g><g class="tick" opacity="1" transform="translate(0,33.333333333333314)"><line stroke="currentColor" x2="-6"></line><text fill="currentColor" x="-9" dy="0.32em" style="font-size: 12px;">16.00%</text></g><g class="tick" opacity="1" transform="translate(0,0)"><line stroke="currentColor" x2="-6"></line><text fill="currentColor" x="-9" dy="0.32em" style="font-size: 12px;">18.00%</text></g></g><g class="grid-lines" fill="none" font-size="10" font-family="sans-serif" text-anchor="end"><path class="domain" stroke="currentColor" d="M410,300H0V0H410"></path><g class="tick" opacity="1" transform="translate(0,300)"><line stroke="currentColor" x2="410" style="stroke: #ccc; fill: none;"></line></g><g class="tick" opacity="1" transform="translate(0,266.66666666666663)"><line stroke="currentColor" x2="410" style="stroke: #ccc; fill: none;"></line></g><g class="tick" opacity="1" transform="translate(0,233.33333333333334)"><line stroke="currentColor" x2="410" style="stroke: #ccc; fill: none;"></line></g><g class="tick" opacity="1" transform="translate(0,200.00000000000003)"><line stroke="currentColor" x2="410" style="stroke: #ccc; fill: none;"></line></g><g class="tick" opacity="1" transform="translate(0,166.66666666666669)"><line stroke="currentColor" x2="410" style="stroke: #ccc; fill: none;"></line></g><g class="tick" opacity="1" transform="translate(0,133.33333333333331)"><line stroke="currentColor" x2="410" style="stroke: #ccc; fill: none;"></line></g><g class="tick" opacity="1" transform="translate(0,100.00000000000001)"><line stroke="currentColor" x2="410" style="stroke: #ccc; fill: none;"></line></g><g class="tick" opacity="1" transform="translate(0,66.66666666666663)"><line stroke="currentColor" x2="410" style="stroke: #ccc; fill: none;"></line></g><g class="tick" opacity="1" transform="translate(0,33.333333333333314)"><line stroke="currentColor" x2="410" style="stroke: #ccc; fill: none;"></line></g><g class="tick" opacity="1" transform="translate(0,0)"><line stroke="currentColor" x2="410" style="stroke: #ccc; fill: none;"></line></g></g><g class="lines"><path class="line" d="M2.13,164.079L4.192,166.344L6.32,172.941L8.381,184.31L10.512,178.22L12.642,184.152L14.569,181.835L16.7,179.69L18.761,181.191L20.892,173.646L22.953,182.628L25.084,187.519L27.214,184.555L29.276,183.968L31.403,179.218L33.465,180.042L35.596,161.064L37.726,165.324L39.653,157.235L41.783,170.01L43.845,165.225L45.976,170.664L48.037,175.558L50.168,176.026L52.298,170.682L54.36,168.092L56.487,164.999L58.549,163.361L60.679,162.652L62.81,161.542L64.737,158.978L66.867,161.443L68.929,156.774L71.059,166.563L73.121,164.029L75.251,164.592L77.382,162.959L79.444,158.301L81.571,151.957L83.633,151.606L85.763,153.541L87.894,151.778L89.889,144.912L92.02,143.886L94.081,148.383L96.212,157.658L98.274,155.729L100.404,154.732L102.534,152.612L104.596,149.413L106.724,146.07L108.785,146.233L110.916,154.249L113.046,150.191L114.973,146.547L117.104,141.518L119.165,146.757L121.296,152.799L123.357,156.005L125.488,152.346L127.618,135.564L129.68,130.279L131.807,122.176L133.869,123.9L135.999,134.477L138.13,128.715L140.057,123.175L142.187,120.662L144.249,129.352L146.379,136.402L148.441,135.918L150.572,138.936L152.702,131.933L154.764,126.828L156.891,120.556L158.953,123.575L161.083,132.87L163.214,133.031L165.141,125.339L167.271,124.613L169.333,132.653L171.463,140.439L173.525,139.404L175.655,141.768L177.786,139.606L179.847,133.018L181.975,132.589L184.037,138.809L186.167,145.804L188.298,140.443L190.293,134.306L192.424,133.536L194.485,149.174L196.616,154.63L198.678,158.088L200.808,159.299L202.938,156.344L205,152.792L207.128,149.762L209.189,156.707L211.32,161.386L213.45,160.279L215.377,155.342L217.508,150.129L219.569,152.728L221.7,161.998L223.761,167.793L225.892,169.523L228.022,167.61L230.084,161.384L232.211,158.851L234.273,161.345L236.403,170.382L238.534,167.815L240.461,167.963L242.591,160.143L244.653,164.82L246.783,171.321L248.845,176.068L250.976,179.499L253.106,174.552L255.168,168.528L257.298,168.008L259.357,166.847L261.487,175.378L263.618,173.526L265.545,173.731L267.675,177.122L269.737,176.353L271.867,180.405L273.929,178.992L276.059,188.236L278.19,180.692L280.251,176.314L282.382,182.582L284.444,185.62L286.574,185.77L288.704,183.557L290.697,180.643L292.828,183.929L294.889,191.627L297.02,193.959L299.081,194.115L301.212,194.367L303.342,193.596L305.404,194.047L307.534,194.45L309.596,201.885L311.726,203.271L313.857,203.237L315.781,201.828L317.911,201.918L319.973,200.137L322.104,200.893L324.165,205.756L326.296,207.179L328.426,207.107L330.488,207.231L332.618,202.467L334.68,207.319L336.81,209.292L338.941,212.381L340.865,210.745L342.995,206.337L345.057,206.386L347.187,213.819L349.249,217.892L351.379,220.914L353.51,218.345L355.572,216.148L357.702,216.674L359.764,216.156L361.894,218.585L364.024,219.379L365.949,213.275L368.079,210.994L370.141,215.196L372.271,211.23L374.333,215.452L376.463,214.277L378.594,213.874L380.655,214.237L382.786,212.73L384.847,219.379L386.978,220.53L389.108,221.762L391.101,218.329L393.232,222.515L395.293,227.78L397.424,228.382L399.485,233.189L401.616,239.171L403.746,228.634L405.808,211.846L407.938,211.165L410,212.12" data-legend="java" style="stroke: rgb(31, 119, 180); fill: none;"></path><path class="line" d="M2.13,261.493L4.192,264.686L6.32,265.408L8.381,273.681L10.512,265.906L12.642,268.178L14.569,264.839L16.7,264.176L18.761,268.527L20.892,269.856L22.953,272.146L25.084,272.755L27.214,270.819L29.276,263.839L31.403,258.069L33.465,262.393L35.596,263.344L37.726,260.871L39.653,264.252L41.783,260.379L43.845,261.77L45.976,265.031L48.037,264.501L50.168,264.109L52.298,262.223L54.36,262.097L56.487,259.627L58.549,264.654L60.679,269.3L62.81,266.703L64.737,264.932L66.867,264.233L68.929,269.496L71.059,270.047L73.121,272.393L75.251,271.258L77.382,268.255L79.444,264.484L81.571,265.948L83.633,267.506L85.763,267.711L87.894,267.377L89.889,265.693L92.02,265.158L94.081,268.953L96.212,270.339L98.274,272.145L100.404,272.498L102.534,267.698L104.596,264.75L106.724,263.94L108.785,268.25L110.916,268.896L113.046,266.159L114.973,266.837L117.104,265.533L119.165,267.794L121.296,268.909L123.357,271.491L125.488,270.316L127.618,265.627L129.68,261.508L131.807,259.379L133.869,264.629L135.999,266.892L138.13,264.463L140.057,263.35L142.187,265.518L144.249,269.113L146.379,271.465L148.441,273.109L150.572,272.551L152.702,267.418L154.764,263.16L156.891,263.141L158.953,266.055L161.083,267.433L163.214,266.406L165.141,265.302L167.271,265.028L169.333,268.112L171.463,271.759L173.525,275.799L175.655,276.096L177.786,270.769L179.847,266.689L181.975,265.974L184.037,269.986L186.167,271.7L188.298,270.7L190.293,271.224L192.424,271.282L194.485,275.953L196.616,278.989L198.678,277.638L200.808,279.529L202.938,275.408L205,269.173L207.128,268.773L209.189,270.927L211.32,273.769L213.45,273.686L215.377,275.263L217.508,273.136L219.569,275.246L221.7,277.891L223.761,280.96L225.892,280.54L228.022,278.133L230.084,272.558L232.211,270.646L234.273,274.582L236.403,276.811L238.534,276.305L240.461,276.015L242.591,277.304L244.653,276.322L246.783,279.992L248.845,283.192L250.976,282.113L253.106,278.511L255.168,274.231L257.298,271.451L259.357,272.176L261.487,274.225L263.618,276.158L265.545,275.176L267.675,273.24L269.737,276.626L271.867,278.617L273.929,280.353L276.059,280.972L278.19,275.186L280.251,272.596L282.382,271.456L284.444,272.678L286.574,276.521L288.704,276.9L290.697,273.314L292.828,270.044L294.889,269.572L297.02,274.623L299.081,278.788L301.212,278.457L303.342,274.325L305.404,271.722L307.534,266.483L309.596,266.881L311.726,268.998L313.857,271.453L315.781,271.834L317.911,271.451L319.973,273.679L322.104,275.794L324.165,278.028L326.296,278.844L328.426,276.116L330.488,270.373L332.618,268.753L334.68,268.536L336.81,272.597L338.941,275.21L340.865,273.311L342.995,274.303L345.057,274.454L347.187,276.511L349.249,278.844L351.379,278.664L353.51,274.659L355.572,270.057L357.702,269.347L359.764,269.811L361.894,275.012L364.024,275.818L365.949,276.882L368.079,272.922L370.141,274.853L372.271,278.267L374.333,277.337L376.463,277.667L378.594,273.539L380.655,271.455L382.786,270.003L384.847,267.352L386.978,273.399L389.108,278.208L391.101,278.509L393.232,277.501L395.293,278.822L397.424,277.964L399.485,277.34L401.616,276.228L403.746,276.211L405.808,273.366L407.938,272.916L410,274.172" data-legend="c" style="stroke: rgb(255, 127, 14); fill: none;"></path><path class="line" d="M2.13,235.178L4.192,241.182L6.32,240.528L8.381,238.496L10.512,232.451L12.642,239.432L14.569,237.088L16.7,238.973L18.761,234.891L20.892,237.925L22.953,239.59L25.084,241.854L27.214,240.208L29.276,234.062L31.403,231.698L33.465,229.318L35.596,227.471L37.726,230.162L39.653,233.662L41.783,239.001L43.845,235.067L45.976,233.233L48.037,228.696L50.168,234.142L52.298,238.367L54.36,229.549L56.487,237.203L58.549,240.353L60.679,239.08L62.81,239.08L64.737,237.73L66.867,241.363L68.929,241.119L71.059,241.403L73.121,238.987L75.251,240.032L77.382,241.998L79.444,240.026L81.571,240.328L83.633,241.344L85.763,239.085L87.894,239L89.889,236.707L92.02,235.854L94.081,236.267L96.212,232.127L98.274,232.416L100.404,230.398L102.534,233.349L104.596,231.307L106.724,227.322L108.785,228.815L110.916,230.096L113.046,225.953L114.973,226.536L117.104,222.331L119.165,221.366L121.296,219.661L123.357,218.207L125.488,221.542L127.618,219.566L129.68,213.42L131.807,209.73L133.869,214.631L135.999,212.614L138.13,211.645L140.057,207.724L142.187,207.471L144.249,212.134L146.379,207.879L148.441,205.911L150.572,206.672L152.702,211.413L154.764,207.104L156.891,203.571L158.953,202.351L161.083,201.781L163.214,198.279L165.141,197.545L167.271,198.728L169.333,198.496L171.463,194.331L173.525,194.156L175.655,196.006L177.786,196.344L179.847,187.1L181.975,183.953L184.037,186.687L186.167,185.123L188.298,181.692L190.293,182.554L192.424,183.175L194.485,183.751L196.616,182.009L198.678,178.08L200.808,180.612L202.938,178.627L205,170.237L207.128,164.004L209.189,164.797L211.32,163.853L213.45,158.566L215.377,156.846L217.508,152.601L219.569,153.982L221.7,148.81L223.761,141.842L225.892,143.599L228.022,139.379L230.084,132.468L232.211,130.723L234.273,127.154L236.403,130.065L238.534,120.624L240.461,125.278L242.591,124.382L244.653,123.203L246.783,116.403L248.845,110.293L250.976,110.89L253.106,112.588L255.168,108.689L257.298,96.716L259.357,99.437L261.487,108.092L263.618,97.731L265.545,91.049L267.675,81.789L269.737,88.648L271.867,85.855L273.929,79.043L276.059,77.676L278.19,91.258L280.251,74.037L282.382,65.278L284.444,69.885L286.574,70.526L288.704,67.056L290.697,55.438L292.828,45.499L294.889,34.313L297.02,34.096L299.081,33.058L301.212,38.93L303.342,41.458L305.404,29.089L307.534,23.737L309.596,21.316L311.726,24.545L313.857,25.983L315.781,30.156L317.911,22.043L319.973,18.867L322.104,26.978L324.165,20.63L326.296,26.933L328.426,32.788L330.488,20.075L332.618,16.741L334.68,14.583L336.81,22.73L338.941,14.952L340.865,17.445L342.995,7.651L345.057,18.896L347.187,16.711L349.249,10.996L351.379,21.386L353.51,22.756L355.572,6.581L357.702,10.227L359.764,23.474L361.894,39.315L364.024,43.944L365.949,51.994L368.079,51.477L370.141,57.464L372.271,58.754L374.333,57.538L376.463,67.081L378.594,76.08L380.655,69.968L382.786,73.091L384.847,76.463L386.978,81.039L389.108,78.004L391.101,86.151L393.232,78.567L395.293,80.436L397.424,86.488L399.485,84.898L401.616,83.755L403.746,98.629L405.808,95.537L407.938,79.809L410,91.231" data-legend="python" style="stroke: rgb(44, 160, 44); fill: none;"></path><path class="line" d="M2.13,99.981L4.192,69.522L6.32,68.899L8.381,76.22L10.512,47.171L12.642,50.327L14.569,39.625L16.7,38.694L18.761,66.841L20.892,69.036L22.953,70.587L25.084,70.609L27.214,77.389L29.276,81.124L31.403,95.007L33.465,100.025L35.596,108.021L37.726,108.68L39.653,106.144L41.783,105.707L43.845,108.041L45.976,114.889L48.037,115.681L50.168,116.014L52.298,124.017L54.36,122.567L56.487,123.976L58.549,128.21L60.679,132.579L62.81,133.453L64.737,134.08L66.867,137.234L68.929,132.699L71.059,134.993L73.121,140.177L75.251,142.674L77.382,147.294L79.444,147.824L81.571,147.61L83.633,149.047L85.763,149.776L87.894,154.795L89.889,154.803L92.02,155.933L94.081,156.173L96.212,154.989L98.274,154.628L100.404,158.432L102.534,156.87L104.596,157.723L106.724,161.464L108.785,164.181L110.916,164.114L113.046,163.12L114.973,162.525L117.104,164.204L119.165,164.385L121.296,164.542L123.357,165.829L125.488,163.576L127.618,160.967L129.68,161.81L131.807,161.496L133.869,162.074L135.999,164.22L138.13,165.148L140.057,169.617L142.187,168.121L144.249,167.903L146.379,171.215L148.441,170.729L150.572,171.989L152.702,175.589L154.764,178.153L156.891,180.589L158.953,180.447L161.083,181.356L163.214,182.312L165.141,182.517L167.271,184.163L169.333,179.188L171.463,178.808L173.525,178.76L175.655,177.365L177.786,177.728L179.847,184.46L181.975,183.313L184.037,181.486L186.167,185.253L188.298,186.36L190.293,186.447L192.424,182.53L194.485,180.22L196.616,180.625L198.678,186.05L200.808,181.937L202.938,191.209L205,190.065L207.128,188.029L209.189,189.223L211.32,188.68L213.45,189.5L215.377,191.708L217.508,195.318L219.569,191.808L221.7,193.399L223.761,194.988L225.892,196.152L228.022,197.458L230.084,199.026L232.211,202.359L234.273,200.477L236.403,201.496L238.534,205.793L240.461,204.608L242.591,204.374L244.653,200.165L246.783,204.089L248.845,200.831L250.976,198.845L253.106,202.174L255.168,201.744L257.298,204.464L259.357,203.56L261.487,201.367L263.618,203.603L265.545,205.976L267.675,199.792L269.737,199.323L271.867,205.5L273.929,205.726L276.059,204.995L278.19,203.261L280.251,206.805L282.382,208.922L284.444,208.312L286.574,210.355L288.704,210.643L290.697,215.77L292.828,221.048L294.889,222.453L297.02,222.423L299.081,220.849L301.212,219.843L303.342,223.154L305.404,226.401L307.534,225.473L309.596,227.777L311.726,225.457L313.857,225.929L315.781,227.604L317.911,226.875L319.973,228.059L322.104,226.359L324.165,229.519L326.296,229.673L328.426,228.941L330.488,225.166L332.618,221.359L334.68,224.656L336.81,225.714L338.941,224.754L340.865,222.604L342.995,223.503L345.057,220.255L347.187,219.775L349.249,220.698L351.379,218.308L353.51,219.064L355.572,220.137L357.702,220.382L359.764,218.648L361.894,218.463L364.024,218.807L365.949,218.267L368.079,218.84L370.141,217.658L372.271,213.923L374.333,211.553L376.463,213.177L378.594,214.87L380.655,214.977L382.786,211.453L384.847,209.817L386.978,220.095L389.108,223.254L391.101,224.503L393.232,217.766L395.293,220.839L397.424,220.663L399.485,215.163L401.616,216.401L403.746,220.031L405.808,216.172L407.938,218.336L410,222.623" data-legend="c#" style="stroke: rgb(214, 39, 40); fill: none;"></path><path class="line" d="M2.13,223.227L4.192,216.158L6.32,222.301L8.381,212.318L10.512,215.724L12.642,209.245L14.569,217.078L16.7,217.495L18.761,206.107L20.892,207.364L22.953,208.548L25.084,204.618L27.214,209.903L29.276,205.124L31.403,201.927L33.465,197.275L35.596,201.528L37.726,200.882L39.653,203.684L41.783,198.874L43.845,195.222L45.976,195.184L48.037,192.559L50.168,194.512L52.298,190.107L54.36,192.147L56.487,189.853L58.549,180.56L60.679,186.101L62.81,186.469L64.737,187.633L66.867,179.08L68.929,177.734L71.059,169.743L73.121,164.901L75.251,160.332L77.382,165.612L79.444,167.383L81.571,166.655L83.633,165.236L85.763,161.331L87.894,165.209L89.889,165.573L92.02,161.274L94.081,156.123L96.212,156.31L98.274,154.403L100.404,152.548L102.534,158.256L104.596,161.133L106.724,160.246L108.785,154.279L110.916,153.505L113.046,150.565L114.973,152.47L117.104,150.115L119.165,148.582L121.296,145.418L123.357,140.722L125.488,133.932L127.618,120.988L129.68,120.848L131.807,124.443L133.869,117.438L135.999,112.898L138.13,111.578L140.057,117.238L142.187,115.516L144.249,112.104L146.379,111.383L148.441,110.045L150.572,110.888L152.702,117.152L154.764,116.76L156.891,118.906L158.953,116.895L161.083,112.798L163.214,114.175L165.141,118.189L167.271,115.196L169.333,99.75L171.463,97.777L173.525,94.038L175.655,94.876L177.786,97.721L179.847,103.491L181.975,99.598L184.037,94.599L186.167,90.977L188.298,99.668L190.293,98.952L192.424,99.449L194.485,95.825L196.616,97.902L198.678,89.12L200.808,90.069L202.938,99.422L205,103.723L207.128,102.816L209.189,94.898L211.32,96.496L213.45,96.064L215.377,102.263L217.508,99.817L219.569,98.113L221.7,96.26L223.761,97.346L225.892,97.816L228.022,103.073L230.084,103.927L232.211,106.791L234.273,103.208L236.403,101.746L238.534,110.551L240.461,113.579L242.591,113.879L244.653,118.693L246.783,112.121L248.845,111.897L250.976,109.689L253.106,112.752L255.168,116.769L257.298,117.629L259.357,117.601L261.487,118.763L263.618,119.017L265.545,118.444L267.675,122.211L269.737,119.81L271.867,115.795L273.929,119.67L276.059,112.57L278.19,116.664L280.251,123.349L282.382,120.904L284.444,117.929L286.574,116.115L288.704,116.764L290.697,110.658L292.828,107.666L294.889,105.988L297.02,106.039L299.081,98.418L301.212,95.543L303.342,100.466L305.404,104.911L307.534,106.581L309.596,98.585L311.726,97.209L313.857,104.497L315.781,110.362L317.911,103.487L319.973,101.245L322.104,104.267L324.165,99.556L326.296,98.763L328.426,97.456L330.488,104.941L332.618,109.972L334.68,103.812L336.81,103.67L338.941,110.577L340.865,115.163L342.995,101.181L345.057,107.689L347.187,109.484L349.249,106.466L351.379,105.264L353.51,106.99L355.572,115.639L357.702,120.175L359.764,121.149L361.894,125.898L364.024,132.994L365.949,136.069L368.079,138.368L370.141,144.577L372.271,143.605L374.333,140.366L376.463,152.551L378.594,155.976L380.655,165.032L382.786,165.265L384.847,151.882L386.978,158.337L389.108,165.803L391.101,163.853L393.232,172.371L395.293,173.156L397.424,175.032L399.485,179.003L401.616,178.425L403.746,181.539L405.808,188.937L407.938,187.369L410,190.311" data-legend="javascript" style="stroke: rgb(148, 103, 189); fill: none;"></path><path class="line" d="M2.13,299.276L4.192,300L6.32,299.867L8.381,299.859L10.512,299.148L12.642,299.231L14.569,299.671L16.7,299.049L18.761,299.869L20.892,299.702L22.953,297.439L25.084,297.579L27.214,292.948L29.276,296.552L31.403,295.946L33.465,296.455L35.596,296.491L37.726,295.414L39.653,295.455L41.783,294.605L43.845,295.576L45.976,294.685L48.037,293.483L50.168,292.601L52.298,293.479L54.36,294.355L56.487,294.177L58.549,294.648L60.679,294.733L62.81,293.515L64.737,292.953L66.867,291.631L68.929,292.885L71.059,292.414L73.121,292.44L75.251,290.802L77.382,289.872L79.444,289.722L81.571,290.578L83.633,290.011L85.763,290.038L87.894,288.916L89.889,288.67L92.02,289.042L94.081,289.046L96.212,287.535L98.274,286.824L100.404,287.049L102.534,286.563L104.596,285.801L106.724,284.697L108.785,285.016L110.916,283.906L113.046,281.76L114.973,282.174L117.104,282.039L119.165,282.017L121.296,281.269L123.357,281.257L125.488,281.188L127.618,282.707L129.68,280.873L131.807,279.216L133.869,280.653L135.999,279.168L138.13,276.613L140.057,277.354L142.187,276.453L144.249,275.386L146.379,275.219L148.441,275.068L150.572,274.625L152.702,276.08L154.764,273.081L156.891,272.751L158.953,274.49L161.083,272.861L163.214,270.346L165.141,268.474L167.271,270.461L169.333,269.056L171.463,269.393L173.525,265.601L175.655,267.59L177.786,268.456L179.847,266.78L181.975,266.623L184.037,268.993L186.167,267.072L188.298,268.026L190.293,266.131L192.424,264.595L194.485,266.313L196.616,264.649L198.678,264.345L200.808,264.922L202.938,267.375L205,263.784L207.128,265.915L209.189,267.254L211.32,266.729L213.45,264.495L215.377,261.575L217.508,259.699L219.569,261.182L221.7,257.816L223.761,257.215L225.892,256.644L228.022,256.037L230.084,254.969L232.211,255.137L234.273,256.897L236.403,255.862L238.534,250.318L240.461,250.137L242.591,250.989L244.653,252.333L246.783,251.034L248.845,253.491L250.976,256.066L253.106,256.179L255.168,253.979L257.298,252.396L259.357,256.591L261.487,255.32L263.618,250.893L265.545,252.861L267.675,249.167L269.737,251.984L271.867,250.869L273.929,253.014L276.059,251.226L278.19,251.248L280.251,251.443L282.382,251.224L284.444,252.314L286.574,252.304L288.704,245.514L290.697,244.542L292.828,243.101L294.889,245.596L297.02,246.493L299.081,249.809L301.212,248.934L303.342,243.13L305.404,239.787L307.534,239.787L309.596,245.364L311.726,247.667L313.857,244.395L315.781,241.356L317.911,240.445L319.973,241.106L322.104,243.9L324.165,244.932L326.296,244.067L328.426,245.118L330.488,240.845L332.618,243.026L334.68,246.793L336.81,245.772L338.941,241.85L340.865,238.735L342.995,238.313L345.057,239.832L347.187,241.157L349.249,244.31L351.379,243.418L353.51,242.396L355.572,237.747L357.702,238.325L359.764,244.116L361.894,243.313L364.024,235.389L365.949,236.393L368.079,236.154L370.141,239.607L372.271,241.282L374.333,245.615L376.463,243.716L378.594,244.381L380.655,244.101L382.786,244.272L384.847,246.266L386.978,245.561L389.108,247.86L391.101,250.698L393.232,253.266L395.293,255.932L397.424,256.906L399.485,257.892L401.616,260.227L403.746,262.386L405.808,260.589L407.938,260.127L410,264.526" data-legend="r" style="stroke: rgb(140, 86, 75); fill: none;"></path></g></g><g transform="translate(20, 150)"><text font-family="sans-serif" transform="rotate(-90)" x="-50" y="0" dy="1em" class="axis-label y-axis-label" style="text-anchor: middle; font-weight: bold;">% of Stack Overflow questions that month</text></g><g font-family="sans-serif" class="legend" transform="translate(530, 20)" style="font-size: 12px;"><rect y="0" width="10" height="10" style="fill: rgb(31, 119, 180);"></rect><rect y="15" width="10" height="10" style="fill: rgb(255, 127, 14);"></rect><rect y="30" width="10" height="10" style="fill: rgb(44, 160, 44);"></rect><rect y="45" width="10" height="10" style="fill: rgb(214, 39, 40);"></rect><rect y="60" width="10" height="10" style="fill: rgb(148, 103, 189);"></rect><rect y="75" width="10" height="10" style="fill: rgb(140, 86, 75);"></rect><text font-size="10px" x="13" y="5" text-anchor="left" style="alignment-baseline: middle;">java</text><text font-size="10px" x="13" y="20" text-anchor="left" style="alignment-baseline: middle;">c</text><text font-size="10px" x="13" y="35" text-anchor="left" style="alignment-baseline: middle;">python</text><text font-size="10px" x="13" y="50" text-anchor="left" style="alignment-baseline: middle;">c#</text><text font-size="10px" x="13" y="65" text-anchor="left" style="alignment-baseline: middle;">javascript</text><text font-size="10px" x="13" y="80" text-anchor="left" style="alignment-baseline: middle;">r</text></g></svg>